<svg width="32" height="32" viewBox="0 0 32 32" fill="none" xmlns="http://www.w3.org/2000/svg">
<path d="M26.74 26.3275L6.74001 4.32751C6.65219 4.22852 6.5456 4.14794 6.42641 4.09045C6.30722 4.03295 6.1778 3.99969 6.04566 3.99258C5.91352 3.98547 5.78129 4.00466 5.65662 4.04903C5.53195 4.09341 5.41733 4.16208 5.3194 4.25108C5.22146 4.34008 5.14217 4.44763 5.08611 4.5675C5.03005 4.68737 4.99834 4.81718 4.99282 4.94939C4.98729 5.08161 5.00806 5.2136 5.05393 5.33773C5.09979 5.46186 5.16984 5.57565 5.26001 5.67251L10 10.8863V16C10.0001 17.0769 10.2901 18.1338 10.8395 19.06C11.3888 19.9862 12.1773 20.7475 13.1222 21.264C14.0671 21.7805 15.1336 22.0332 16.2098 21.9955C17.286 21.9579 18.3323 21.6313 19.2388 21.05L20.5988 22.55C19.4001 23.3921 17.9932 23.8889 16.5315 23.9862C15.0699 24.0836 13.6095 23.7777 12.3098 23.1019C11.01 22.4262 9.92078 21.4066 9.1608 20.1542C8.40082 18.9019 7.99929 17.4649 8.00001 16C8.00001 15.7348 7.89465 15.4804 7.70711 15.2929C7.51958 15.1054 7.26522 15 7.00001 15C6.73479 15 6.48044 15.1054 6.2929 15.2929C6.10536 15.4804 6.00001 15.7348 6.00001 16C6.00305 18.4782 6.92491 20.8672 8.58731 22.7051C10.2497 24.543 12.5346 25.6991 15 25.95V29C15 29.2652 15.1054 29.5196 15.2929 29.7071C15.4804 29.8947 15.7348 30 16 30C16.2652 30 16.5196 29.8947 16.7071 29.7071C16.8947 29.5196 17 29.2652 17 29V25.9488C18.7935 25.7703 20.5051 25.109 21.9525 24.035L25.26 27.6725C25.3478 27.7715 25.4544 27.8521 25.5736 27.9096C25.6928 27.9671 25.8222 28.0003 25.9544 28.0074C26.0865 28.0145 26.2187 27.9954 26.3434 27.951C26.4681 27.9066 26.5827 27.8379 26.6806 27.7489C26.7786 27.6599 26.8578 27.5524 26.9139 27.4325C26.97 27.3126 27.0017 27.1828 27.0072 27.0506C27.0127 26.9184 26.992 26.7864 26.9461 26.6623C26.9002 26.5382 26.8302 26.4244 26.74 26.3275ZM16 20C14.9391 20 13.9217 19.5786 13.1716 18.8284C12.4214 18.0783 12 17.0609 12 16V13.0863L17.865 19.5388C17.29 19.8417 16.6499 20.0001 16 20ZM10.895 4.84751C11.581 3.73668 12.6106 2.87991 13.8276 2.40721C15.0446 1.9345 16.3826 1.87165 17.6385 2.22819C18.8945 2.58473 19.9999 3.34121 20.787 4.38284C21.5741 5.42448 22 6.69443 22 8.00001V15.5538C22 15.819 21.8947 16.0733 21.7071 16.2609C21.5196 16.4484 21.2652 16.5538 21 16.5538C20.7348 16.5538 20.4804 16.4484 20.2929 16.2609C20.1054 16.0733 20 15.819 20 15.5538V8.00001C20.0005 7.12915 19.7168 6.28193 19.1919 5.58702C18.667 4.8921 17.9297 4.38745 17.0919 4.14972C16.2542 3.912 15.3617 3.95417 14.5501 4.26984C13.7384 4.58552 13.052 5.15744 12.595 5.89876C12.5284 6.01534 12.439 6.11733 12.3322 6.19863C12.2254 6.27993 12.1032 6.33888 11.9731 6.37197C11.843 6.40506 11.7075 6.41161 11.5748 6.39123C11.4421 6.37085 11.3149 6.32395 11.2007 6.25334C11.0865 6.18273 10.9877 6.08984 10.9102 5.98022C10.8327 5.87061 10.778 5.7465 10.7495 5.6153C10.721 5.48411 10.7191 5.34852 10.7441 5.2166C10.7691 5.08469 10.8205 4.95917 10.895 4.84751ZM23.455 18.9088C23.8168 17.9817 24.0017 16.9951 24 16C24 15.7348 24.1054 15.4804 24.2929 15.2929C24.4804 15.1054 24.7348 15 25 15C25.2652 15 25.5196 15.1054 25.7071 15.2929C25.8947 15.4804 26 15.7348 26 16C26.0018 17.2441 25.7703 18.4775 25.3175 19.6363C25.2717 19.7613 25.2015 19.8759 25.1108 19.9734C25.0202 20.0709 24.911 20.1493 24.7896 20.204C24.6683 20.2588 24.5372 20.2887 24.4041 20.2921C24.2711 20.2956 24.1386 20.2724 24.0146 20.2239C23.8906 20.1755 23.7775 20.1028 23.682 20.0101C23.5865 19.9174 23.5104 19.8065 23.4583 19.684C23.4062 19.5615 23.379 19.4298 23.3785 19.2967C23.3779 19.1636 23.4039 19.0317 23.455 18.9088Z" fill="#343330"/>
</svg>
